# xmcd
# 
# Track frame offsets:
#     150
#     19210
#     37995
#     61957
#     80112
#     98102
#     116065
#     148812
#     164200
#     189437
#     214965
# 
# Disc length: 3031
# 
# Revision: 1
# Processed by: cddbd v1.5.2PL0 Copyright (c) Steve Scherf et al.
# Submitted via: BonkEnc v1.0
# 
DISCID=a40bd50b
DTITLE=Joe Hisaishi - Asian X.T.C.
DYEAR=2006
DGENRE=New Age
TTITLE0=Asian X.T.C.
TTITLE1=Welcome to Dongmakgol
TTITLE2=Venuses
TTITLE3=The Post Modern Life
TTITLE4=A Chinese Tall Story
TTITLE5=Zai-Jian
TTITLE6=Asian Crisis
TTITLE7=Hurly-Burly
TTITLE8=Monkey Forest
TTITLE9=Dawn of Asia
TTITLE10=Woman -Next Stage-
EXTD=YEAR: 2006
EXTT0=
EXTT1=
EXTT2=
EXTT3=
EXTT4=
EXTT5=
EXTT6=
EXTT7=
EXTT8=
EXTT9=
EXTT10=
PLAYORDER=
